<mxfile host="app.diagrams.net" modified="2023-12-04T13:50:51.167Z" agent="Mozilla/5.0 (Windows NT 10.0; Win64; x64; rv:120.0) Gecko/20100101 Firefox/120.0" etag="MAPf7ONm9muhqiAk2cfK" version="22.1.5" type="device">
  <diagram name="Page-1" id="29woh7tEm5QMD6GGxa_z">
    <mxGraphModel dx="1906" dy="729" grid="1" gridSize="10" guides="1" tooltips="1" connect="1" arrows="1" fold="1" page="1" pageScale="1" pageWidth="850" pageHeight="1100" math="0" shadow="0">
      <root>
        <mxCell id="0" />
        <mxCell id="1" parent="0" />
        <mxCell id="gdyeVfGIWPaSRl9VeBup-2" value="&lt;p style=&quot;margin:0px;margin-top:4px;text-align:center;&quot;&gt;&lt;b&gt;SensorVariable&lt;/b&gt;&lt;/p&gt;&lt;hr size=&quot;1&quot;&gt;&lt;div&gt;&amp;nbsp;/current _value: integer&lt;br&gt;&lt;/div&gt;" style="verticalAlign=top;align=left;overflow=fill;fontSize=12;fontFamily=Helvetica;html=1;whiteSpace=wrap;" parent="1" vertex="1">
          <mxGeometry x="60" y="360" width="160" height="70" as="geometry" />
        </mxCell>
        <mxCell id="gdyeVfGIWPaSRl9VeBup-3" value="&lt;p style=&quot;margin:0px;margin-top:4px;text-align:center;&quot;&gt;&lt;b&gt;ActuatorVariable&lt;/b&gt;&lt;/p&gt;&lt;hr size=&quot;1&quot;&gt;&lt;div&gt;&amp;nbsp;/current_state: integer&lt;br&gt;&lt;/div&gt;" style="verticalAlign=top;align=left;overflow=fill;fontSize=12;fontFamily=Helvetica;html=1;whiteSpace=wrap;" parent="1" vertex="1">
          <mxGeometry x="510" y="360" width="160" height="70" as="geometry" />
        </mxCell>
        <mxCell id="gdyeVfGIWPaSRl9VeBup-5" value="&lt;p style=&quot;margin:0px;margin-top:4px;text-align:center;&quot;&gt;&lt;b&gt;ControlledVariable&lt;/b&gt;&lt;br&gt;&lt;/p&gt;&lt;hr size=&quot;1&quot;&gt;&lt;p style=&quot;margin:0px;margin-left:4px;&quot;&gt;&amp;nbsp;/current _value: integer&lt;br&gt;&amp;nbsp;target_value: integer&lt;br&gt;&lt;/p&gt;" style="verticalAlign=top;align=left;overflow=fill;fontSize=12;fontFamily=Helvetica;html=1;whiteSpace=wrap;" parent="1" vertex="1">
          <mxGeometry x="280" y="360" width="160" height="70" as="geometry" />
        </mxCell>
        <mxCell id="gdyeVfGIWPaSRl9VeBup-15" value="" style="endArrow=block;endSize=16;endFill=0;html=1;rounded=0;" parent="1" source="gdyeVfGIWPaSRl9VeBup-2" target="3OEqWcdBglgWmhzp25ZI-2" edge="1">
          <mxGeometry width="160" relative="1" as="geometry">
            <mxPoint x="110" y="420" as="sourcePoint" />
            <mxPoint x="270" y="420" as="targetPoint" />
          </mxGeometry>
        </mxCell>
        <mxCell id="gdyeVfGIWPaSRl9VeBup-16" value="" style="endArrow=block;endSize=16;endFill=0;html=1;rounded=0;" parent="1" source="gdyeVfGIWPaSRl9VeBup-3" target="3OEqWcdBglgWmhzp25ZI-2" edge="1">
          <mxGeometry width="160" relative="1" as="geometry">
            <mxPoint x="152" y="550" as="sourcePoint" />
            <mxPoint x="327" y="360" as="targetPoint" />
          </mxGeometry>
        </mxCell>
        <mxCell id="gdyeVfGIWPaSRl9VeBup-17" value="" style="endArrow=block;endSize=16;endFill=0;html=1;rounded=0;" parent="1" source="gdyeVfGIWPaSRl9VeBup-5" target="3OEqWcdBglgWmhzp25ZI-2" edge="1">
          <mxGeometry width="160" relative="1" as="geometry">
            <mxPoint x="162" y="560" as="sourcePoint" />
            <mxPoint x="337" y="370" as="targetPoint" />
          </mxGeometry>
        </mxCell>
        <mxCell id="gdyeVfGIWPaSRl9VeBup-21" value="&lt;p style=&quot;margin:0px;margin-top:4px;text-align:center;&quot;&gt;&lt;b&gt;SensorHistory&lt;/b&gt;&lt;/p&gt;&lt;hr size=&quot;1&quot;&gt;&lt;p style=&quot;margin:0px;margin-left:4px;&quot;&gt;/last_datapoint: SensorDatapoint&lt;br&gt;&lt;/p&gt;" style="verticalAlign=top;align=left;overflow=fill;fontSize=12;fontFamily=Helvetica;html=1;whiteSpace=wrap;" parent="1" vertex="1">
          <mxGeometry x="40" y="570" width="200" height="70" as="geometry" />
        </mxCell>
        <mxCell id="gdyeVfGIWPaSRl9VeBup-26" value="" style="endArrow=none;html=1;edgeStyle=orthogonalEdgeStyle;rounded=0;" parent="1" source="gdyeVfGIWPaSRl9VeBup-2" target="gdyeVfGIWPaSRl9VeBup-21" edge="1">
          <mxGeometry relative="1" as="geometry">
            <mxPoint x="350" y="770" as="sourcePoint" />
            <mxPoint x="510" y="770" as="targetPoint" />
          </mxGeometry>
        </mxCell>
        <mxCell id="gdyeVfGIWPaSRl9VeBup-27" value="1" style="edgeLabel;resizable=0;html=1;align=left;verticalAlign=bottom;" parent="gdyeVfGIWPaSRl9VeBup-26" connectable="0" vertex="1">
          <mxGeometry x="-1" relative="1" as="geometry">
            <mxPoint y="20" as="offset" />
          </mxGeometry>
        </mxCell>
        <mxCell id="gdyeVfGIWPaSRl9VeBup-28" value="1" style="edgeLabel;resizable=0;html=1;align=right;verticalAlign=bottom;" parent="gdyeVfGIWPaSRl9VeBup-26" connectable="0" vertex="1">
          <mxGeometry x="1" relative="1" as="geometry" />
        </mxCell>
        <mxCell id="gdyeVfGIWPaSRl9VeBup-29" value="" style="endArrow=none;html=1;edgeStyle=orthogonalEdgeStyle;rounded=0;exitX=0.5;exitY=1;exitDx=0;exitDy=0;entryX=0.5;entryY=0;entryDx=0;entryDy=0;" parent="1" source="gdyeVfGIWPaSRl9VeBup-3" target="gdyeVfGIWPaSRl9VeBup-56" edge="1">
          <mxGeometry relative="1" as="geometry">
            <mxPoint x="629.6600000000001" y="450" as="sourcePoint" />
            <mxPoint x="629.6600000000001" y="570" as="targetPoint" />
          </mxGeometry>
        </mxCell>
        <mxCell id="gdyeVfGIWPaSRl9VeBup-30" value="1" style="edgeLabel;resizable=0;html=1;align=left;verticalAlign=bottom;" parent="gdyeVfGIWPaSRl9VeBup-29" connectable="0" vertex="1">
          <mxGeometry x="-1" relative="1" as="geometry">
            <mxPoint y="20" as="offset" />
          </mxGeometry>
        </mxCell>
        <mxCell id="gdyeVfGIWPaSRl9VeBup-31" value="1" style="edgeLabel;resizable=0;html=1;align=right;verticalAlign=bottom;" parent="gdyeVfGIWPaSRl9VeBup-29" connectable="0" vertex="1">
          <mxGeometry x="1" relative="1" as="geometry" />
        </mxCell>
        <mxCell id="gdyeVfGIWPaSRl9VeBup-32" value="" style="endArrow=none;html=1;edgeStyle=orthogonalEdgeStyle;rounded=0;entryX=1;entryY=0.5;entryDx=0;entryDy=0;exitX=0.5;exitY=1;exitDx=0;exitDy=0;" parent="1" source="gdyeVfGIWPaSRl9VeBup-5" target="gdyeVfGIWPaSRl9VeBup-21" edge="1">
          <mxGeometry relative="1" as="geometry">
            <mxPoint x="359.6600000000001" y="450" as="sourcePoint" />
            <mxPoint x="359.6600000000001" y="570" as="targetPoint" />
            <Array as="points">
              <mxPoint x="360" y="605" />
            </Array>
          </mxGeometry>
        </mxCell>
        <mxCell id="gdyeVfGIWPaSRl9VeBup-33" value="1" style="edgeLabel;resizable=0;html=1;align=left;verticalAlign=bottom;" parent="gdyeVfGIWPaSRl9VeBup-32" connectable="0" vertex="1">
          <mxGeometry x="-1" relative="1" as="geometry">
            <mxPoint y="20" as="offset" />
          </mxGeometry>
        </mxCell>
        <mxCell id="gdyeVfGIWPaSRl9VeBup-34" value="1" style="edgeLabel;resizable=0;html=1;align=right;verticalAlign=bottom;" parent="gdyeVfGIWPaSRl9VeBup-32" connectable="0" vertex="1">
          <mxGeometry x="1" relative="1" as="geometry">
            <mxPoint x="10" as="offset" />
          </mxGeometry>
        </mxCell>
        <mxCell id="gdyeVfGIWPaSRl9VeBup-35" value="&lt;p style=&quot;margin:0px;margin-top:4px;text-align:center;&quot;&gt;&lt;b&gt;SensorDatapoint&lt;/b&gt;&lt;/p&gt;&lt;hr size=&quot;1&quot;&gt;&lt;p style=&quot;margin:0px;margin-left:4px;&quot;&gt;timestamp: long&lt;/p&gt;&lt;p style=&quot;margin:0px;margin-left:4px;&quot;&gt;value: integer&lt;br&gt;&lt;/p&gt;" style="verticalAlign=top;align=left;overflow=fill;fontSize=12;fontFamily=Helvetica;html=1;whiteSpace=wrap;" parent="1" vertex="1">
          <mxGeometry x="60" y="700" width="160" height="70" as="geometry" />
        </mxCell>
        <mxCell id="gdyeVfGIWPaSRl9VeBup-36" value="" style="endArrow=none;html=1;edgeStyle=orthogonalEdgeStyle;rounded=0;exitX=0.5;exitY=1;exitDx=0;exitDy=0;entryX=0.5;entryY=0;entryDx=0;entryDy=0;" parent="1" source="gdyeVfGIWPaSRl9VeBup-21" target="gdyeVfGIWPaSRl9VeBup-35" edge="1">
          <mxGeometry relative="1" as="geometry">
            <mxPoint x="359.65999999999997" y="740" as="sourcePoint" />
            <mxPoint x="359.65999999999997" y="860" as="targetPoint" />
          </mxGeometry>
        </mxCell>
        <mxCell id="gdyeVfGIWPaSRl9VeBup-37" value="1" style="edgeLabel;resizable=0;html=1;align=left;verticalAlign=bottom;" parent="gdyeVfGIWPaSRl9VeBup-36" connectable="0" vertex="1">
          <mxGeometry x="-1" relative="1" as="geometry">
            <mxPoint y="20" as="offset" />
          </mxGeometry>
        </mxCell>
        <mxCell id="gdyeVfGIWPaSRl9VeBup-38" value="&lt;div&gt;n&lt;/div&gt;" style="edgeLabel;resizable=0;html=1;align=right;verticalAlign=bottom;" parent="gdyeVfGIWPaSRl9VeBup-36" connectable="0" vertex="1">
          <mxGeometry x="1" relative="1" as="geometry">
            <mxPoint as="offset" />
          </mxGeometry>
        </mxCell>
        <mxCell id="gdyeVfGIWPaSRl9VeBup-39" value="&lt;p style=&quot;margin:0px;margin-top:4px;text-align:center;&quot;&gt;&lt;b&gt;ActuatorEvent&lt;/b&gt;&lt;/p&gt;&lt;hr size=&quot;1&quot;&gt;&lt;p style=&quot;margin:0px;margin-left:4px;&quot;&gt;timestamp: long&lt;/p&gt;&lt;p style=&quot;margin:0px;margin-left:4px;&quot;&gt;new_state: integer&lt;br&gt;&lt;/p&gt;" style="verticalAlign=top;align=left;overflow=fill;fontSize=12;fontFamily=Helvetica;html=1;whiteSpace=wrap;" parent="1" vertex="1">
          <mxGeometry x="510" y="700" width="160" height="70" as="geometry" />
        </mxCell>
        <mxCell id="gdyeVfGIWPaSRl9VeBup-40" value="" style="endArrow=none;html=1;edgeStyle=orthogonalEdgeStyle;rounded=0;entryX=0.5;entryY=0;entryDx=0;entryDy=0;exitX=0.5;exitY=1;exitDx=0;exitDy=0;" parent="1" source="gdyeVfGIWPaSRl9VeBup-56" target="gdyeVfGIWPaSRl9VeBup-39" edge="1">
          <mxGeometry relative="1" as="geometry">
            <mxPoint x="590" y="640" as="sourcePoint" />
            <mxPoint x="819.66" y="890" as="targetPoint" />
          </mxGeometry>
        </mxCell>
        <mxCell id="gdyeVfGIWPaSRl9VeBup-41" value="1" style="edgeLabel;resizable=0;html=1;align=left;verticalAlign=bottom;" parent="gdyeVfGIWPaSRl9VeBup-40" connectable="0" vertex="1">
          <mxGeometry x="-1" relative="1" as="geometry">
            <mxPoint y="20" as="offset" />
          </mxGeometry>
        </mxCell>
        <mxCell id="gdyeVfGIWPaSRl9VeBup-42" value="&lt;div&gt;n&lt;/div&gt;" style="edgeLabel;resizable=0;html=1;align=right;verticalAlign=bottom;" parent="gdyeVfGIWPaSRl9VeBup-40" connectable="0" vertex="1">
          <mxGeometry x="1" relative="1" as="geometry">
            <mxPoint as="offset" />
          </mxGeometry>
        </mxCell>
        <mxCell id="gdyeVfGIWPaSRl9VeBup-44" value="" style="endArrow=none;dashed=1;html=1;dashPattern=1 3;strokeWidth=2;rounded=0;entryX=0.008;entryY=0.587;entryDx=0;entryDy=0;entryPerimeter=0;" parent="1" source="3OEqWcdBglgWmhzp25ZI-1" target="gdyeVfGIWPaSRl9VeBup-2" edge="1">
          <mxGeometry width="50" height="50" relative="1" as="geometry">
            <mxPoint x="-40" y="430" as="sourcePoint" />
            <mxPoint x="10" y="380" as="targetPoint" />
            <Array as="points">
              <mxPoint x="30" y="401" />
            </Array>
          </mxGeometry>
        </mxCell>
        <mxCell id="gdyeVfGIWPaSRl9VeBup-46" value="&lt;div&gt;current_value = SensorHistory&lt;/div&gt;&lt;div&gt;.last_datapoint&lt;/div&gt;" style="shape=note;size=20;whiteSpace=wrap;html=1;fillColor=#f5f5f5;fontColor=#333333;strokeColor=#666666;" parent="1" vertex="1">
          <mxGeometry x="190" y="450" width="140" height="60" as="geometry" />
        </mxCell>
        <mxCell id="gdyeVfGIWPaSRl9VeBup-47" value="" style="endArrow=none;dashed=1;html=1;dashPattern=1 3;strokeWidth=2;rounded=0;entryX=0.008;entryY=0.587;entryDx=0;entryDy=0;exitX=0.5;exitY=0;exitDx=0;exitDy=0;exitPerimeter=0;entryPerimeter=0;" parent="1" edge="1">
          <mxGeometry width="50" height="50" relative="1" as="geometry">
            <mxPoint x="254.5" y="450" as="sourcePoint" />
            <mxPoint x="285.5" y="401" as="targetPoint" />
            <Array as="points">
              <mxPoint x="254.5" y="401" />
            </Array>
          </mxGeometry>
        </mxCell>
        <mxCell id="gdyeVfGIWPaSRl9VeBup-48" value="&lt;div&gt;&lt;font style=&quot;font-size: 12px;&quot;&gt;current_state = ActuatorHistory&lt;/font&gt;&lt;/div&gt;&lt;div&gt;&lt;font style=&quot;font-size: 12px;&quot;&gt;.last_event&lt;/font&gt;&lt;/div&gt;" style="shape=note;size=20;whiteSpace=wrap;html=1;fillColor=#f5f5f5;fontColor=#333333;strokeColor=#666666;" parent="1" vertex="1">
          <mxGeometry x="425" y="450" width="140" height="60" as="geometry" />
        </mxCell>
        <mxCell id="gdyeVfGIWPaSRl9VeBup-49" value="" style="endArrow=none;dashed=1;html=1;dashPattern=1 3;strokeWidth=2;rounded=0;entryX=0.008;entryY=0.587;entryDx=0;entryDy=0;exitX=0.5;exitY=0;exitDx=0;exitDy=0;exitPerimeter=0;entryPerimeter=0;" parent="1" edge="1">
          <mxGeometry width="50" height="50" relative="1" as="geometry">
            <mxPoint x="479" y="450" as="sourcePoint" />
            <mxPoint x="510" y="401" as="targetPoint" />
            <Array as="points">
              <mxPoint x="479" y="401" />
            </Array>
          </mxGeometry>
        </mxCell>
        <mxCell id="gdyeVfGIWPaSRl9VeBup-51" value="&lt;font style=&quot;font-size: 12px;&quot;&gt;last_datapoint = SensorDatapoint with largest timestamp&lt;/font&gt;" style="shape=note;size=20;whiteSpace=wrap;html=1;fillColor=#f5f5f5;fontColor=#333333;strokeColor=#666666;" parent="1" vertex="1">
          <mxGeometry x="-90" y="650" width="140" height="80" as="geometry" />
        </mxCell>
        <mxCell id="gdyeVfGIWPaSRl9VeBup-52" value="" style="endArrow=none;dashed=1;html=1;dashPattern=1 3;strokeWidth=2;rounded=0;entryX=0.008;entryY=0.587;entryDx=0;entryDy=0;exitX=0.5;exitY=0;exitDx=0;exitDy=0;exitPerimeter=0;entryPerimeter=0;" parent="1" source="gdyeVfGIWPaSRl9VeBup-51" edge="1">
          <mxGeometry width="50" height="50" relative="1" as="geometry">
            <mxPoint x="9" y="659" as="sourcePoint" />
            <mxPoint x="40" y="610" as="targetPoint" />
            <Array as="points">
              <mxPoint x="-20" y="610" />
            </Array>
          </mxGeometry>
        </mxCell>
        <mxCell id="gdyeVfGIWPaSRl9VeBup-53" value="&lt;font style=&quot;font-size: 12px;&quot;&gt;last_event = ActuatorEvent with largest timestamp&lt;/font&gt;" style="shape=note;size=20;whiteSpace=wrap;html=1;fillColor=#f5f5f5;fontColor=#333333;strokeColor=#666666;" parent="1" vertex="1">
          <mxGeometry x="360" y="650" width="140" height="80" as="geometry" />
        </mxCell>
        <mxCell id="gdyeVfGIWPaSRl9VeBup-54" value="" style="endArrow=none;dashed=1;html=1;dashPattern=1 3;strokeWidth=2;rounded=0;entryX=0;entryY=0.5;entryDx=0;entryDy=0;exitX=0.5;exitY=0;exitDx=0;exitDy=0;exitPerimeter=0;" parent="1" source="gdyeVfGIWPaSRl9VeBup-53" target="gdyeVfGIWPaSRl9VeBup-56" edge="1">
          <mxGeometry width="50" height="50" relative="1" as="geometry">
            <mxPoint x="459" y="659" as="sourcePoint" />
            <mxPoint x="490" y="610" as="targetPoint" />
            <Array as="points">
              <mxPoint x="430" y="610" />
            </Array>
          </mxGeometry>
        </mxCell>
        <mxCell id="gdyeVfGIWPaSRl9VeBup-56" value="&lt;p style=&quot;margin:0px;margin-top:4px;text-align:center;&quot;&gt;&lt;b&gt;ActuatorHistory&lt;/b&gt;&lt;/p&gt;&lt;hr size=&quot;1&quot;&gt;&lt;p style=&quot;margin:0px;margin-left:4px;&quot;&gt;/last_event: ActuatorEvent&lt;br&gt;&lt;/p&gt;" style="verticalAlign=top;align=left;overflow=fill;fontSize=12;fontFamily=Helvetica;html=1;whiteSpace=wrap;" parent="1" vertex="1">
          <mxGeometry x="510" y="580" width="160" height="60" as="geometry" />
        </mxCell>
        <mxCell id="3OEqWcdBglgWmhzp25ZI-1" value="&lt;div&gt;current_value = SensorHistory&lt;/div&gt;&lt;div&gt;.last_datapoint&lt;/div&gt;" style="shape=note;size=20;whiteSpace=wrap;html=1;fillColor=#f5f5f5;fontColor=#333333;strokeColor=#666666;" parent="1" vertex="1">
          <mxGeometry x="-40" y="450" width="140" height="60" as="geometry" />
        </mxCell>
        <mxCell id="3OEqWcdBglgWmhzp25ZI-2" value="&lt;p style=&quot;margin:0px;margin-top:4px;text-align:center;&quot;&gt;&lt;b&gt;Variable (abstrakt)&lt;/b&gt;&lt;/p&gt;&lt;hr size=&quot;1&quot;&gt;&lt;p style=&quot;margin:0px;margin-left:4px;&quot;&gt;name: String&lt;/p&gt;" style="verticalAlign=top;align=left;overflow=fill;fontSize=12;fontFamily=Helvetica;html=1;whiteSpace=wrap;" parent="1" vertex="1">
          <mxGeometry x="280" y="210" width="160" height="70" as="geometry" />
        </mxCell>
        <mxCell id="3OEqWcdBglgWmhzp25ZI-4" value="&lt;p style=&quot;margin:0px;margin-top:4px;text-align:center;&quot;&gt;&lt;b&gt;StreamSnapshot&lt;/b&gt;&lt;br&gt;&lt;/p&gt;&lt;hr size=&quot;1&quot;&gt;&lt;p style=&quot;margin:0px;margin-left:4px;&quot;&gt;image: byte[]&lt;br&gt;&lt;/p&gt;" style="verticalAlign=top;align=left;overflow=fill;fontSize=12;fontFamily=Helvetica;html=1;whiteSpace=wrap;" parent="1" vertex="1">
          <mxGeometry x="570" y="180" width="160" height="60" as="geometry" />
        </mxCell>
      </root>
    </mxGraphModel>
  </diagram>
</mxfile>
